<svg xmlns="http://www.w3.org/2000/svg" viewBox="0 0 435.5 41.52"><defs><style>.cls-1{fill:#0e0e0e;stroke:#0e0e0e;stroke-miterlimit:10;}</style></defs><g id="Layer_2" data-name="Layer 2"><g id="Layer_1-2" data-name="Layer 1"><path class="cls-1" d="M31.64.82V4.31H4V26.19H26.87v3.49H4V40.75H.5V.82Z"/><path class="cls-1" d="M40.9.59V25.9A10.22,10.22,0,0,0,44,33.37c2.19,2.17,5.47,3.63,10.19,3.78a7.08,7.08,0,0,0,.88,0h21v3.46h-22c-5.56-.21-9.78-2.08-12.51-4.75a14.15,14.15,0,0,1-4.19-10c0-.09,0-.26,0,.12h0V.59ZM75.47,7a10.09,10.09,0,0,1,1.08,4.48,10.28,10.28,0,0,1-1.08,4.51c-1.79,3.46-6,6.24-12.42,6.24H53.62s.61.73,1.34,1.46a14.08,14.08,0,0,0,9.2,4H65a16.74,16.74,0,0,0,2.14-.12,13.84,13.84,0,0,0,2.67-.64c.23-.06.47-.15.64-.21s.41-.17,1.17-.44L73,29.36l-1.32.52a8.19,8.19,0,0,1-.79.27,21.19,21.19,0,0,1-3.28.79,19.48,19.48,0,0,1-2.64.15h-.73a.72.72,0,0,1-.23,0,17.88,17.88,0,0,1-11.49-4.93,14.43,14.43,0,0,1-4.45-10.28v-.79a15.17,15.17,0,0,1,5-10.34A16.14,16.14,0,0,1,64,.59C69.73.59,73.74,3.43,75.47,7Zm-20.1.35a11.5,11.5,0,0,0-3.81,7.94v.64a9.59,9.59,0,0,0,.36,2.81H63.63v0c4.55,0,7.48-1.9,8.76-4.39a6.25,6.25,0,0,0,.71-2.9,6.43,6.43,0,0,0-.71-2.93C71.11,6,68.38,4,64,4A12.65,12.65,0,0,0,55.37,7.3Z"/><path class="cls-1" d="M101.81,20.71,116.4,41h-4.28L99.67,23.67,87.22,41H83L97.53,20.71,83.21.73h4.27l12.19,17,12.19-17h4.27Z"/><path class="cls-1" d="M174.26.82V4.31H146.57V26.19h22.91v3.49H146.57V40.75h-3.45V.82Z"/><path class="cls-1" d="M208.07,40.67h-3.49V37a13.74,13.74,0,0,1-4,2.64,14.06,14.06,0,0,1-5.71,1.17,15.75,15.75,0,0,1-5.78-1.11,14.33,14.33,0,0,1-8.87-13.21V.5h3.51V26.4a10.69,10.69,0,0,0,6.68,10.05,11.82,11.82,0,0,0,4.46.85,10.74,10.74,0,0,0,4.3-.88c3.17-1.41,5.45-4.37,5.45-9.23V.5H208V23.76h0Z"/><path class="cls-1" d="M232,.5a14.26,14.26,0,0,1,10,24.29A14.33,14.33,0,0,1,232,29h-1.72l14.88,11.8h-5.6L224.68,29h-7.24v11.8H214V.5Zm-14.56,25H232a10.7,10.7,0,0,0,10.67-10.75,10.43,10.43,0,0,0-3.14-7.56A10.54,10.54,0,0,0,232,4H217.44Z"/><path class="cls-1" d="M265.23.5a14.68,14.68,0,0,1,10.16,4.1,13.83,13.83,0,0,1,4.25,9.93V40.78h-3.46V14.53A10.29,10.29,0,0,0,273,7.09,11.13,11.13,0,0,0,265.23,4h-10V40.78h-3.49V.5Z"/><path class="cls-1" d="M288.75.5V40.78h-3.48V.5Z"/><path class="cls-1" d="M295.08,4V.5h33.81V4H324a12.11,12.11,0,0,0-8.35,3.16,9.81,9.81,0,0,0-3.4,7.38V40.78h-3.49V14.53a13.7,13.7,0,0,1,4.54-10C314,4,314.77,3.4,313.8,4Z"/><path class="cls-1" d="M362.49,40.67H359V37A13.84,13.84,0,0,1,355,39.61a14,14,0,0,1-5.71,1.17,15.7,15.7,0,0,1-5.77-1.11,14.34,14.34,0,0,1-8.88-13.21V.5h3.52V26.4a10.66,10.66,0,0,0,6.68,10.05,11.77,11.77,0,0,0,4.45.85,10.82,10.82,0,0,0,4.31-.88C356.72,35,359,32.05,359,27.19V.5h3.45V23.76h0Z"/><path class="cls-1" d="M386,.65A14.26,14.26,0,0,1,396,4.72a13.69,13.69,0,0,1,0,19.66,16.85,16.85,0,0,1-5.83,3.78c.32.08,3.28,1.34,6.3,2.55C404,33.87,412,37.15,420,37.15a26.1,26.1,0,0,0,13.13-3.52l1.67,3a29.66,29.66,0,0,1-14.8,4c-8.64,0-17.08-3.49-25-6.74-6.77-2.79-13.1-5.45-19.22-5.45V25H386a10.58,10.58,0,0,0,7.5-3,10.31,10.31,0,0,0,3.13-7.39,10.17,10.17,0,0,0-3.13-7.38,10.59,10.59,0,0,0-7.5-3H371.54V40.64h-3.48V.65ZM433.27,6.8a9.52,9.52,0,0,1,1.09,4.33,9.46,9.46,0,0,1-1.12,4.43c-1.84,3.31-6.09,6-12.1,6v0H410.89c-.09-.14.5.59,1.23,1.23a14.85,14.85,0,0,0,9.43,3.81l.36,0h.67a20.94,20.94,0,0,0,2.23-.11,14.64,14.64,0,0,0,2.72-.59c.21-.06.41-.15.65-.23l1.2-.47,1.29,3.25c-.82.29-1.06.41-1.32.5s-.5.17-.79.26a17.84,17.84,0,0,1-3.37.7,17.18,17.18,0,0,1-2.52.18,8.92,8.92,0,0,1-.91,0h-.41a19,19,0,0,1-11.6-4.72,13.82,13.82,0,0,1-4.54-10v-.5l0-.26a14.2,14.2,0,0,1,5.12-10A17.33,17.33,0,0,1,421.53.65C427.38.65,431.46,3.37,433.27,6.8Zm-20.65.44a10.75,10.75,0,0,0-3.93,7.62l0,.2v.38a9,9,0,0,0,.38,2.64h11.52c5.3,0,8.32-1.79,9.64-4.22a5.55,5.55,0,0,0,.7-2.73,5.91,5.91,0,0,0-.7-2.75c-1.29-2.43-4.13-4.25-8.67-4.25A13.59,13.59,0,0,0,412.62,7.24Z"/></g></g></svg>