<svg xmlns="http://www.w3.org/2000/svg" viewBox="0 0 479.89 31.48"><defs><style>.cls-1{stroke:#231f20;stroke-miterlimit:10;stroke-width:0.25px;}</style></defs><g id="Layer_2" data-name="Layer 2"><g id="Layer_1-2" data-name="Layer 1"><polygon class="cls-1" points="0.13 31.16 2.79 31.16 2.79 22.63 20.42 22.63 20.42 19.95 2.79 19.95 2.79 3.1 24.1 3.1 24.1 0.42 0.13 0.42 0.13 31.16"/><path class="cls-1" d="M28.51,19.81h0v-.09C28.53,19.66,28.53,19.52,28.51,19.81Z"/><path class="cls-1" d="M41.48,28.38c-3.63-.11-6.16-1.24-7.85-2.91a7.84,7.84,0,0,1-2.41-5.75V.24H28.53V19.72a10.86,10.86,0,0,0,3.23,7.69c2.09,2.06,5.34,3.5,9.63,3.66H58.32V28.41H42.15A4.11,4.11,0,0,1,41.48,28.38Z"/><path class="cls-1" d="M49,.24A12.44,12.44,0,0,0,40.6,3.42a11.68,11.68,0,0,0-3.86,8V12a11.1,11.1,0,0,0,3.43,7.91A13.72,13.72,0,0,0,49,23.69a.5.5,0,0,0,.18,0h.56A13.07,13.07,0,0,0,54.31,23a4.82,4.82,0,0,0,.61-.2l1-.41L54.87,20c-.58.2-.76.29-.9.34s-.31.11-.49.15a10.67,10.67,0,0,1-2.06.5,12.68,12.68,0,0,1-1.64.09h-.66A10.82,10.82,0,0,1,42,18c-.56-.57-1.06-1.15-1-1.13h7.27c5,0,8.18-2.14,9.56-4.8a8,8,0,0,0,.83-3.48,7.79,7.79,0,0,0-.83-3.45C56.5,2.43,53.41.24,49,.24Zm6.45,10.57c-1,1.92-3.25,3.39-6.74,3.39v0h-9A7.52,7.52,0,0,1,39.42,12v-.5A8.84,8.84,0,0,1,42.36,5.4,9.68,9.68,0,0,1,49,2.9c3.36,0,5.46,1.49,6.45,3.43A4.94,4.94,0,0,1,56,8.58,4.77,4.77,0,0,1,55.46,10.81Z"/><polygon class="cls-1" points="89.12 0.35 85.83 0.35 76.44 13.43 67.06 0.35 63.77 0.35 74.8 15.73 63.59 31.36 66.86 31.36 76.44 18.01 86.03 31.36 89.32 31.36 78.09 15.73 89.12 0.35"/><polygon class="cls-1" points="109.88 31.16 112.54 31.16 112.54 22.63 130.17 22.63 130.17 19.95 112.54 19.95 112.54 3.1 133.85 3.1 133.85 0.42 109.88 0.42 109.88 31.16"/><path class="cls-1" d="M159.84.17h-2.66V20.72c0,3.74-1.76,6-4.19,7.1a8.25,8.25,0,0,1-3.32.68,9.06,9.06,0,0,1-3.43-.66,8.23,8.23,0,0,1-5.14-7.73V.17h-2.7v20a11,11,0,0,0,6.83,10.17,11.93,11.93,0,0,0,4.44.86,11,11,0,0,0,7.51-2.93v2.84h2.69v-13h0Z"/><path class="cls-1" d="M186,18.87A11,11,0,0,0,186,3.4,11,11,0,0,0,178.28.17H164.39v31h2.69V22.09h5.57l11.45,9.09h4.31L177,22.09h1.33A11.06,11.06,0,0,0,186,18.87Zm-18.92.52V2.85h11.2a8.28,8.28,0,0,1,8.21,8.26,8.25,8.25,0,0,1-8.21,8.28Z"/><path class="cls-1" d="M203.85.17H193.5v31h2.68V2.85h7.67a8.6,8.6,0,0,1,6,2.39A8,8,0,0,1,212.28,11V31.18H215V11a10.66,10.66,0,0,0-3.27-7.64A11.32,11.32,0,0,0,203.85.17Z"/><rect class="cls-1" x="219.27" y="0.17" width="2.68" height="31.01"/><path class="cls-1" d="M226.82,2.85h14.41c.75-.45.16,0-.36.43A10.53,10.53,0,0,0,237.38,11V31.18h2.68V11a7.58,7.58,0,0,1,2.61-5.68,9.37,9.37,0,0,1,6.43-2.44h3.75V.17h-26Z"/><path class="cls-1" d="M278.68.17H276V20.72c0,3.74-1.76,6-4.19,7.1a8.29,8.29,0,0,1-3.32.68,9.06,9.06,0,0,1-3.43-.66,8.21,8.21,0,0,1-5.14-7.73V.17h-2.71v20a11,11,0,0,0,6.84,10.17,11.93,11.93,0,0,0,4.44.86A11,11,0,0,0,276,28.25v2.84h2.68v-13h0Z"/><path class="cls-1" d="M324,23h.32c.23,0,.45,0,.7,0a13.64,13.64,0,0,0,1.94-.13,13.69,13.69,0,0,0,2.59-.55,4.37,4.37,0,0,0,.61-.2c.2-.07.38-.16,1-.38l-1-2.51c-.56.23-.74.3-.92.36s-.34.14-.5.19a11.1,11.1,0,0,1-2.09.45,16.51,16.51,0,0,1-1.72.09h-.52l-.27,0a11.43,11.43,0,0,1-7.26-2.93c-.47-.41-.86-.87-.94-.94h7.89v0c4.62,0,7.89-2,9.31-4.6a7.36,7.36,0,0,0,.86-3.4A7.41,7.41,0,0,0,333.18,5c-1.39-2.64-4.53-4.74-9-4.74a13.33,13.33,0,0,0-8.59,3.05A10.94,10.94,0,0,0,311.6,11l0,.2v.39a10.68,10.68,0,0,0,3.49,7.69A14.69,14.69,0,0,0,324,23Zm-9.76-11.28v-.29l0-.16a8.27,8.27,0,0,1,3-5.86A10.5,10.5,0,0,1,324.14,3c3.5,0,5.68,1.39,6.68,3.27a4.57,4.57,0,0,1,.54,2.12,4.26,4.26,0,0,1-.54,2.09c-1,1.88-3.34,3.25-7.42,3.25h-8.87A6.74,6.74,0,0,1,314.24,11.67Z"/><path class="cls-1" d="M323,28.38c-6.18,0-12.34-2.52-18.18-5-2.32-.92-4.6-1.89-4.85-2a12.8,12.8,0,0,0,4.49-2.91,10.54,10.54,0,0,0,0-15.13A11,11,0,0,0,296.81.28H283V31.07h2.69V3h11.14a8.16,8.16,0,0,1,5.77,2.34,7.91,7.91,0,0,1,0,11.37A8.16,8.16,0,0,1,296.81,19H289v2.69c4.71,0,9.59,2.05,14.79,4.19,6.07,2.51,12.57,5.19,19.22,5.19A22.76,22.76,0,0,0,334.38,28l-1.29-2.34A20.13,20.13,0,0,1,323,28.38Z"/><path class="cls-1" d="M367.06.42,354.58,31.11h2.87l2.28-5.61h16.91l2.28,5.61h2.86L369.29.42Zm-6.25,22.42,7.37-18.11,7.38,18.11Z"/><path class="cls-1" d="M395.13.13h-8.48V31.18h8.48c7.62,0,12.6-4.08,14.74-9.2a16.47,16.47,0,0,0,1.27-6.32,16.24,16.24,0,0,0-1.27-6.31C407.73,4.21,402.75.13,395.13.13ZM407.42,21c-1.81,4.31-5.84,7.56-12.29,7.56h-5.82V2.79h5.82c6.47,0,10.48,3.27,12.29,7.57a13.6,13.6,0,0,1,1,5.3A13.75,13.75,0,0,1,407.42,21Z"/><path class="cls-1" d="M442.86,3.28a12.62,12.62,0,0,0-8.3-3.11h-5V4c.36.47-.2-.16-.83-.75A12.63,12.63,0,0,0,420.4.17h-5v31h2.66V2.85h2.3a9.71,9.71,0,0,1,6.54,2.44A7.58,7.58,0,0,1,429.55,11V31.18h2.71V2.85h2.3a9.69,9.69,0,0,1,6.52,2.44A7.61,7.61,0,0,1,443.72,11V31.18h2.66V11A10.41,10.41,0,0,0,442.86,3.28Z"/><rect class="cls-1" x="450.76" y="0.17" width="2.68" height="31.01"/><path class="cls-1" d="M476.5,3.33A11.32,11.32,0,0,0,468.67.17H458.32v31H461V2.85h7.67a8.62,8.62,0,0,1,6,2.39A8,8,0,0,1,477.1,11V31.18h2.67V11A10.66,10.66,0,0,0,476.5,3.33Z"/></g></g></svg>